<?xml version="1.0" standalone="yes"?>
<svg width="2058" height="1547">
<path style="fill:#ffffff; stroke:none;" d="M0 0L0 1547L2058 1547L2058 736C2044.87 742.601 2026.14 733.453 2015.21 745.105C2004.87 756.136 2009 778.169 2009 792L2009 915C2015.64 915 2027.46 912.715 2032.77 917.434C2035.58 919.928 2036.06 923.443 2035.96 927C2035.71 935.748 2039.74 957.374 2032.77 963.566C2028.91 966.997 2022.76 966 2018 966L1983 966C1978.38 966 1972.12 967.054 1968.11 964.258C1963.3 960.904 1964.37 954.169 1964 949L1929 949C1929 953.939 1929.87 959.922 1925.77 963.566C1922.1 966.825 1916.53 966 1912 966L1882 966C1877.48 966 1871.88 966.832 1868.23 963.566C1864.99 960.669 1865.6 956.909 1865.34 953C1864.78 944.886 1861.73 923.245 1868.23 917.434C1873.52 912.708 1885.38 915 1892 915C1891.74 902.918 1883.52 896.226 1875 888.714C1867.46 882.065 1860.71 871.698 1851 868.133L1830 867C1829.98 873.635 1832.18 886.574 1827.57 891.772C1823.74 896.073 1817.16 895 1812 895C1798.07 895 1779.41 898.286 1766 894.566C1753.15 891.001 1763.72 875.895 1758.73 868.603L1742 864.431C1730.67 858.374 1724.41 842.543 1712 838.653L1690 838L1645 838C1637.8 838 1626.56 835.899 1620 839.179L1593 863.518C1587.06 867.057 1580.68 867 1574 867C1580.57 876.327 1593.06 890.853 1604 894.867L1625 896L1665 895.957C1675.35 895.38 1698.02 888.611 1706.77 896.434C1712.19 901.275 1707.83 907.421 1702 908.815C1690.1 911.66 1678.18 911 1666 911C1645.48 911 1614.85 916.664 1596 907.597C1584.38 902.008 1578.53 888.379 1567 883C1558.7 893.474 1528.54 888 1516 888C1511.14 888 1504.32 889.191 1500.11 886.258C1493.16 881.424 1499.92 872.118 1495.22 868.028C1491.31 864.62 1478.05 867 1473 867C1476.91 874.769 1480.19 902.895 1470.96 907.821C1463.39 911.861 1448.46 909 1440 909C1433.16 909 1420.95 911.324 1415.11 907.258C1406.34 901.158 1409.27 870.642 1418 866C1405.69 855.251 1392.33 835.698 1377 830C1377 834.849 1377.38 840.132 1372.89 843.258C1368.88 846.052 1362.63 845 1358 845L1324 845C1319.38 845 1313.12 846.054 1309.11 843.258C1304.56 840.087 1305.69 834.789 1305 830C1296.07 830 1282.06 827.359 1274 831.573C1253.93 842.064 1244.69 868.382 1222 875.377C1211.14 878.726 1198.23 877 1187 877L1111 877.09C1098.87 877.984 1092.81 889.391 1082 893.441C1068.9 898.348 1052.76 896 1039 896L977 896C970.635 896 959.868 898.115 955.758 891.891C951.462 885.387 959.614 881.184 965 881.015L1015 880.671C1024.37 878.979 1029.24 868.413 1021.78 861.279C1016.15 855.902 1005.13 858 998 858C980.214 858 958.113 861.502 941 856.226C916.739 848.746 904.705 820.893 885 806.789C875.063 799.676 863.569 801 852 801L790 801C779.729 801 767.629 801.056 760.819 810.289C755.109 818.03 757 830 757 839C757 861.083 749.992 896.54 776 906.731C797.978 915.343 823.752 905 846 905C854.419 905 867.101 902.633 874.985 905.742C881.238 908.208 882.95 917.584 879.258 922.891C875.464 928.345 867.756 927 862 927L817 924.055C800.208 922.827 782.537 927.013 767 918.676C742.647 905.609 742 882.3 742 858C742 837.513 742.397 820.599 748 801L691 801C679.152 801 667.127 801.618 657 794.363C639.166 781.585 642 760.25 642 741L642 611C637.464 611 631.897 611.826 628.228 608.566C622.586 603.554 622.457 576.799 627.434 571.229C630.331 567.987 634.091 568.602 638 568.336C647.228 567.708 658.897 566.717 667.996 568.589C676.468 570.332 675 580.558 675 587C675 600.891 675.15 614.321 657 610L657 737C657 750.38 652.42 773.415 665.015 782.347C670.727 786.398 678.344 786 685 786L723 786L824 786C840.427 786 858.823 783.699 875 786.616C906.888 792.365 916.376 834.049 946 842.073C969.095 848.328 995.501 839.178 1019 843.619C1037.2 847.058 1043.03 865.281 1038 881C1049.98 881 1065.64 883.645 1077 879.441C1089.46 874.829 1095.54 863.15 1110 862.09L1186 862C1196.24 862 1209.21 864.103 1219 860.751C1239.06 853.879 1249.19 829.043 1267 818.483C1277.49 812.264 1293.29 815 1305 815C1305.04 809.756 1304 801.216 1308.23 797.434C1313.51 792.715 1325.4 795 1332 795C1349.72 795 1380.89 787.635 1376 814C1387.3 818.801 1394.12 823.015 1403 832C1409.15 838.226 1414.66 847.283 1423 850.772C1429.65 853.552 1438.92 852 1446 852L1496 852C1496 846.37 1494.68 836.497 1499.23 832.434C1503.08 828.996 1509.25 830 1514 830L1550 830C1554.76 830 1560.91 829.003 1564.77 832.434C1570.16 837.216 1567.11 845.749 1568 852C1574.07 852 1581.57 853.222 1587 849.991C1602.44 840.802 1607.82 823.098 1628 823.001L1686 823C1695.49 823 1706.88 821.303 1716 824.224C1733.83 829.931 1738.79 851.998 1759 852C1759 846.37 1757.68 836.497 1762.23 832.434C1766.08 828.996 1772.25 830 1777 830L1812 830C1816.76 830 1822.91 829.003 1826.77 832.434C1832.16 837.216 1829.11 845.749 1830 852C1838.65 852 1847.74 851.058 1856 854.093C1864.3 857.143 1869.72 864.063 1876 869.911C1889.79 882.757 1906.83 894.494 1907 915C1921.95 915 1931.24 916.526 1928 934L1964 934L1965.22 920.044C1969.32 911.693 1986.35 915 1994 915L1994 807C1994 789.857 1991.1 769.655 1995.38 753C2001.96 727.398 2034.75 715.312 2058 727L2058 0L0 0z"/>
<path style="fill:#a54b4b; stroke:none;" d="M491 651C475.028 634.643 481 605.207 481 584L481 477C481 458.283 483.656 437.268 479.101 419C475.906 406.187 460.137 394.141 451 385L386.001 318L153 76L110.09 32C98.4466 19.5011 88.2212 6.91064 71 2.62659C62.9698 0.628906 42.277 -2.58679 35.2284 2.74231C30.6479 6.20544 31.8643 13.147 37.044 15.2577L60 16.0393C68.7367 16.4359 76.6167 20.2239 83 26.0934C124.756 64.4879 163.416 108.484 202.09 150L392.09 347L445.285 402C451.077 408.567 460.77 414.757 464.121 423C470.305 438.211 466 461.773 466 478L466 587C466 604.732 462.865 625.89 467.913 643C471.51 655.194 479.319 658.625 487.682 666.637L492.434 679.566C498.402 685.535 518.029 682 526 682C532.712 682 547.708 684.823 552.257 678.772C555.125 674.957 554.031 667.538 553.988 663C553.931 656.898 556.304 644.923 550.772 640.742C546.779 637.725 539.699 639 535 639C523.716 639 486.792 632.626 491 651M1970 1.42822C1955.5 3.5105 1946.93 13.0652 1937 23L1902 58L1744 216L1407 553L1302 658C1286.8 673.203 1270.58 695.93 1252 706.772C1244.41 711.198 1234.41 710 1226 710C1207.17 710 1184.2 706.236 1167 715.263C1143.34 727.68 1148 757.761 1148 780C1148 786.833 1144.71 804.923 1155 805.663C1165.57 806.422 1163 790.412 1163 784C1163 766.376 1156.89 734.951 1178 727.094C1202.98 717.794 1234.82 733.755 1259 720.951C1267.16 716.631 1273.56 708.441 1280 702L1316 666L1437 545L1834 148L1926 56C1937.82 44.1823 1952.05 23.4639 1968 17.5594C1985.51 11.0767 2012.41 16 2031 16C2037.18 16 2050.01 18.1458 2050.66 8.99695C2051.34 -0.479858 2039.01 1 2033 1C2012.53 1 1990.26 -1.48035 1970 1.42822M307.044 91.7577C297.952 95.1602 302 119.138 302 127L302 188C302 205.058 302.392 221.141 319 230.663C336.541 240.719 359.526 237 379 237L506 237L546 237C553.847 237 562.359 236.658 569 241.558L602 274L658 329C668.676 339.676 685.774 351.557 689.319 367C692.298 379.974 690 395.712 690 409L690 493C690 509.025 686.594 529.383 694.263 544C712.57 578.89 758.509 548.841 784 567.761C799.382 579.177 812.462 595.462 826 609L907 690C921.794 704.794 937.246 726.128 956 735.741C974.947 745.453 997.188 735.813 1017 740.532C1041.31 746.323 1034.44 775.68 1035.02 794C1035.19 799.651 1039.32 806.413 1045.89 802.817C1052.52 799.189 1050 786.28 1050 780C1050 758.453 1049.94 734.757 1025 726.634C1006.13 720.489 981.7 731.711 964 722.457C946.172 713.136 931.125 692.125 917 678L835 596C821.559 582.559 808.463 565.863 793 554.789C776.904 543.261 754.709 547 736 547C725.388 547 713.32 546.673 707.442 535.961C700.775 523.811 705 501.536 705 488L705 406C705 392.131 706.918 376.626 704.192 363C700.552 344.802 683.441 332.441 671 320L612 262C600.796 250.796 589.93 237.142 577 227.939C561.183 216.682 532.393 222 514 222L387 222C370.602 222 346.13 226.523 331 219.647C316.847 213.216 317 201.535 317 188L317 121C317 114.364 320.666 86.6602 307.044 91.7577M607.044 91.7577C600.886 94.062 602 101.763 602 107L602 152C602 173.601 596.65 203.65 604.467 224C610.09 238.638 624.196 249.196 635 260L699 324C705.823 330.823 715.856 338.076 719.925 347C724.786 357.66 722 373.539 722 385L722 470C722 486.488 719.342 504.91 727.263 520C743.616 551.155 779.085 526.265 801 544.329L842 585L921 664C935.596 678.596 950.43 698.627 968 709.532C990.687 723.614 1019.67 707.216 1042 719.417C1061.59 730.122 1054 768.378 1054 787C1054 792.929 1053.84 809.862 1064.89 803.817C1071.91 799.976 1069 784.698 1069 778C1069 755.611 1075.05 722.36 1053 707.966C1029.67 692.736 998.37 710.754 976 695.895C959.281 684.79 945.178 666.178 931 652L852 573L810 531.468C797.665 521.46 782.91 523 768 523C757.211 523 746.28 522.731 740.417 512C732.704 497.88 737 474.621 737 459L737 381C737 367.863 739.145 352.398 733.895 340C729.233 328.991 717.281 320.281 709 312L646 249C636.62 239.62 623.129 229.87 618.549 217C615.599 208.712 617 198.666 617 190L617 140L616.891 99.0007C616.345 94.1416 612.262 89.8051 607.044 91.7577M1071 497C1064.26 497 1049.3 494.17 1044.74 500.228C1042.12 503.718 1043.05 509.866 1043.01 514C1042.93 524.371 1038.28 547.523 1053 547.985L1094 548C1098.92 548 1106.6 549.411 1110.77 546.258C1114.03 543.795 1114.02 539.704 1113.99 536C1113.93 527.698 1117.95 504.166 1110.77 498.742C1105.27 494.581 1092.61 497 1086 497L1086 437C1086 424.125 1087.14 411.642 1080.69 400C1071.84 384.039 1053.83 370.831 1041 358L957 275C945.057 263.057 927.296 250.337 919.821 235C914.701 224.496 917 210.377 917 199L917 124C917 115.937 919.323 103.567 916.258 96.0439C913.959 90.4039 906.217 89.7117 903.179 95.1089C900.419 100.011 902 108.546 902 114L902 157L902 210C902 220.394 900.937 231.266 905.313 241C913.063 258.237 931.832 271.832 945 285L1029 368C1041.62 380.621 1058.93 393.45 1067.9 409C1072.76 417.434 1071 428.636 1071 438L1071 497M1177.04 91.7577C1168.54 94.9413 1172 113.813 1172 121L1172 210L1172 459C1172 499.452 1176.52 542.859 1171.71 583C1169.7 599.84 1161.51 616.575 1145 623.536C1125.23 631.873 1099.19 626.548 1093.12 654C1089.98 668.231 1092 684.482 1092 699L1091 772C1091 779.809 1086.49 809.175 1100.98 805.551C1112.19 802.749 1106.22 777.241 1106.01 769L1107 696C1107 683.946 1104.47 668.549 1108.22 657C1113.62 640.389 1131.82 644.145 1145 639.907C1165.79 633.222 1182.58 615.045 1185.71 593C1191.78 550.364 1187 504.065 1187 461L1187 209L1187 117C1187 110.6 1190.02 86.9019 1177.04 91.7577M1477.04 91.7577C1470.17 94.3307 1472 104.257 1472 110L1472 165L1472 321L1472 369L1471.06 394C1468.12 404.212 1458.21 411.791 1451 419L1407 463L1277 593L1238 632C1231.23 638.767 1224.52 647.493 1216 652.084C1208.94 655.885 1200.73 655 1193 655C1171.49 655 1137.71 648.374 1121.04 665.043C1110.27 675.818 1111 689.928 1111 704L1110 773C1110 780.393 1105.79 806.532 1118 805.663C1129.91 804.815 1126.45 781.813 1125.42 774C1122.41 751.055 1126 726.179 1126 703C1126 693.046 1124.87 682.525 1133.04 675.214C1140.42 668.613 1150.85 670 1160 670C1178.93 670 1206.94 675.133 1224 665.651C1233.31 660.475 1240.55 651.448 1248 644L1288 604L1420 472L1464 428C1472.48 419.525 1482.5 411.117 1485.65 399C1491.7 375.711 1487 346.009 1487 322L1487 162L1487 105C1487 99.2195 1485.93 88.4314 1477.04 91.7577M1777.04 91.7577C1770.39 94.2489 1772 103.417 1772 109C1772 123.349 1774.48 138.226 1764.67 150L1718 197L1627 288L1363 552L1278 637C1263.94 651.058 1250.21 668.681 1234 680.211C1226.15 685.794 1217.14 685 1208 685C1188.85 685 1160.35 679.64 1144.01 691.637C1120.49 708.912 1129 751.756 1129 777C1129 784.042 1125.23 806.508 1137 805.663C1147.43 804.913 1144 785.934 1144 779L1144 731C1144 720.588 1145.45 709.295 1155.09 703.005C1161.83 698.604 1171.37 700 1179 700C1198 700 1225.56 705.082 1242 693.779C1259.06 682.052 1273.38 663.618 1288 649L1376 561L1652 285L1738 199C1751.68 185.32 1770.3 171.47 1780.53 155C1789.61 140.384 1787 122.476 1787 106C1787 100.158 1786.46 88.235 1777.04 91.7577M1775 241.439C1756.34 244.378 1743.59 262.407 1731 275L1646 360L1313 693L1243 763C1231.15 774.846 1219.63 789.452 1206 799.211C1198.2 804.793 1190.2 805 1181 805C1176.53 805 1170.03 803.865 1166.23 806.742C1159.42 811.893 1165.33 819.538 1172 819.956C1182.39 820.607 1195.14 821.29 1205 817.532C1224.64 810.053 1240.45 787.545 1255 773L1345 683L1628 400L1720 308C1735.24 292.758 1749.91 274.672 1767 261.529C1781.68 250.238 1811.32 256 1829 256L1987 256L2032 256C2037.13 256 2045.43 257.544 2049.77 254.258C2055.92 249.609 2051.49 241.838 2045 241.109L1989 241L1846 241C1823.09 241 1797.63 237.876 1775 241.439M491 713C489.971 717.492 490.053 722.224 495.044 724.258C506.453 728.907 526.689 725.001 539 725C545.033 725 552.379 725.533 553.772 717.996C554.911 711.831 556.225 694.863 550.772 690.742C544.504 686.006 528.578 689 521 689C511.207 689 491.49 684.663 490 698C482.9 698 474.74 699.021 468 696.312C447.115 687.917 453 657.591 453 640L453 542C453 527.597 455.972 509.377 449.673 496C442.214 480.159 424.217 467.217 412 455L330 373C317.057 360.057 302.049 338.346 284 332.774C269.112 328.177 250.451 331 235 331L139 331L68 331C59.1381 331 45.2981 328.379 37.044 331.742C28.9465 335.042 32.4326 345.041 40.0008 345.891L105 346L221 346C238.273 346 260.315 342.354 277 346.928C293.443 351.436 308.307 373.307 320 385L399 464C410.516 475.516 428.477 488.188 435.597 503C441.184 514.622 438 532.38 438 545L438 652C438 670.594 435.805 688.458 450.174 702.826C461.534 714.187 476.169 713 491 713M795 508C803.688 509.356 809.06 516.06 815 522L848 555L934 641C948.302 655.302 962.306 673.305 979 684.779C1004.23 702.12 1044.35 676.877 1065.07 704.039C1079.02 722.316 1073 754.404 1073 776C1073 783.001 1069.94 799.548 1076.23 804.257C1080.98 807.82 1086.79 804.289 1087.77 798.996L1088 764L1088 619C1094.29 619 1106.75 621.385 1111.57 616.566C1117.81 610.32 1113.93 588.442 1113.99 580C1114.02 576.296 1114.03 572.205 1110.77 569.742C1106.6 566.589 1098.92 568 1094 568L1053 568.015C1038.34 568.476 1042.62 592.569 1043.07 603L1044.74 615.772C1049.46 622.063 1065.97 619 1073 619L1073 689C1057.06 677.195 1043.3 676 1024 676C1012.53 676 998.071 678.477 988 671.891L963 648L918 603L827 512L809 496.049L796.028 490.686L793.821 473.109C789.302 465.083 765.076 468.99 757 469.14C753.252 469.209 749.277 468.876 746.742 472.228C743.725 476.22 745 483.302 745 488C745 499.794 743.963 511.29 756.104 517.819C766.334 523.319 794.666 521.822 795 508M625 492C575.632 492.136 586 551.462 586 585L586 726C586 745.918 581.213 773.195 588.468 792C591.634 800.204 598.976 805.908 604.996 812L631 839L393 839L326 839C314.354 839 300.966 837.17 290 841.88C278.8 846.691 270.43 857.57 262 866L210 918C202.211 925.789 193.93 937.3 184 942.312C173.339 947.694 157.581 945 146 945L63 945C55.2029 945 43.3228 942.776 36.044 945.742C31.2917 947.679 29.6989 953.823 33.4336 957.566C39.8258 963.973 62.3777 960 71 960L152 960C164.661 960 180.373 962.107 192 955.951C202.4 950.444 210.773 939.227 219 931L269 881C277.538 872.462 286.51 860.038 298 855.479C308.257 851.409 323.092 854 334 854L412 854L681 854C681 860.407 678.701 872.424 682.742 877.772C685.205 881.03 689.296 881.016 693 880.988C701.302 880.927 724.834 884.949 730.258 877.772C733.411 873.599 732 865.918 732 861L731.985 819C731.523 804.285 708.371 808.927 698 809.012C693.866 809.045 687.718 808.12 684.228 810.743C677.938 815.472 681 831.962 681 839C672.725 839 663.948 839.872 656 837.099C641.745 832.125 632.239 817.255 622 807C615.375 800.365 605.211 793.193 602.225 784C596.803 767.313 601 743.491 601 726L601 600C601 576.684 596.806 548.793 601.669 526C604.258 513.865 612.803 507.253 625 507C625.15 523.561 643.978 519.021 656 518.861C660.796 518.797 667.653 520.37 671.772 517.258C678.236 512.373 675.215 493.334 674.985 486C674.527 471.408 652.285 475.915 642 476.012C637.863 476.05 631.721 475.117 628.228 477.743C623.974 480.941 625 487.337 625 492M1575 481.428C1559.02 483.723 1549.85 496.147 1539 507L1478 568L1308 737L1253 792C1243.58 801.42 1234.37 813.204 1223 820.286C1211.74 827.3 1193.77 824 1181 824L1166.11 825.179C1158.17 829.648 1163.83 838.507 1171 838.956C1186.57 839.931 1209.21 842.354 1224 837.038C1237.59 832.152 1247.1 819.905 1257 810L1312 755L1493 575L1546 522C1553.62 514.381 1562.04 502.437 1572 497.97C1581.7 493.618 1595.59 496 1606 496L1679 496L1935 496L2023 496C2030.63 496 2048.83 499.314 2054.57 493.566C2066.92 481.185 2039.38 481 2034 481L1941 481L1696 481L1617 481L1575 481.428M642 611L642 742C642 760.372 638.914 782.105 656 794.363C666.12 801.623 678.157 801 690 801L748 801C741.287 817.362 742 832.549 742 850C742 875.271 739.04 902.42 764 917.536C779.991 927.219 798.377 922.766 816 924.055L862 927C867.251 927 875.627 928.576 879.258 923.772C882.853 919.014 881.896 908.163 875.956 905.742C868.433 902.677 856.064 905 848 905C825.514 905 799 915.352 777 906.731C750.548 896.366 757 862.527 757 840C757 830.877 755.184 819.084 760.819 811.171C767.327 802.03 778.812 801 789 801L851 801C862.569 801 874.063 799.676 884 806.789C903.708 820.895 915.751 848.75 940 856.226C957.113 861.502 979.214 858 997 858C1004.35 858 1014.96 856.004 1020.89 861.279C1029.06 868.537 1023.76 878.909 1014 880.671C998.505 883.468 980.745 880.784 965 881.004C959.235 881.084 951.228 884.664 955.183 891.891C958.651 898.229 970.016 896 976 896L1039 896C1053.04 896 1069.63 898.448 1083 893.441C1093.81 889.391 1099.87 877.985 1112 877.09L1188 877C1199.23 877 1212.14 878.726 1223 875.377C1245.69 868.382 1254.93 842.064 1275 831.573C1282.85 827.47 1296.31 830 1305 830C1305.21 834.448 1304.19 840.202 1308.23 843.258C1312.03 846.135 1318.53 845 1323 845L1359 845C1363.47 845 1369.96 846.135 1373.77 843.258C1377.81 840.208 1377 834.454 1377 830C1392.76 838.403 1400.82 859.513 1418 865C1408.16 871.409 1411.35 882.605 1411.12 893C1411.01 897.677 1409.95 904.023 1414.23 907.258C1419.72 911.41 1432.42 909 1439 909C1447.73 909 1464.18 912.16 1471.89 907.821C1476.03 905.489 1475.78 901.132 1475.86 897C1476.03 887.707 1478.28 875.002 1473 867C1478.25 867 1490.18 864.764 1494.48 868.028C1499.53 871.864 1493.2 881.7 1499.23 886.258C1503.22 889.275 1510.3 888 1515 888L1552 888C1557.92 888 1563.89 888.925 1567 883L1595 907.597C1603.73 911.797 1613.61 911 1623 911L1668 911C1679.86 911 1691.42 911.609 1703 908.815C1708.15 907.57 1711.93 902.134 1708.26 897.228C1705.07 892.972 1698.65 894 1694 894L1657 896C1641.87 896 1617.97 900.521 1604 894.467C1592.43 889.452 1582.78 875.784 1574 867C1581.94 867 1589.24 867.023 1596 862.211C1604.93 855.857 1611.68 842.684 1622 838.742C1629.23 835.979 1640.32 838 1648 838C1667.25 838 1691.27 834.09 1710 838.394C1722.89 841.355 1729.62 858.347 1741 864.431L1758.09 868.603C1763.82 875.529 1752.58 892.292 1766 894.772C1780.37 897.427 1797.38 895 1812 895C1817.06 895 1824.76 896.404 1828.26 891.772C1832.35 886.359 1830 873.54 1830 867L1850 868.133C1859.71 871.698 1866.46 882.065 1874 888.714C1882.36 896.085 1891.45 903.094 1892 915C1885.59 915 1873.57 912.701 1868.23 916.742C1861.13 922.112 1864.99 945.812 1865.14 954C1865.21 957.748 1864.88 961.723 1868.23 964.258C1871.84 966.99 1877.76 966 1882 966L1913 966C1917.01 966 1922.36 966.839 1925.77 964.258C1930.22 960.896 1929 953.88 1929 949L1964 949C1964.11 953.828 1962.86 960.952 1967.23 964.258C1971.03 967.135 1977.53 966 1982 966L2018 966C2022.47 966 2028.96 967.135 2032.77 964.258C2039.97 958.816 2035.87 935.317 2035.99 927C2036.04 923.303 2036.02 919.195 2032.77 916.742C2027.42 912.701 2015.41 915 2009 915L2009 809C2009 792.633 2006.03 772.931 2009.9 757C2015.48 734.013 2035.03 741.922 2052 738.772C2056.98 737.846 2059.34 732.809 2057.4 728.109C2054.87 721.985 2044.24 724 2039 724C2019.87 724 2002.78 728.704 1996.22 749C1990.74 765.952 1994 787.334 1994 805L1994 915C1986.84 915 1969.27 911.738 1965.18 919.109L1964 934L1928 934C1932.28 916.02 1921.8 915 1907 915C1906.94 894.205 1891.07 883.015 1877 869.911C1870.72 864.063 1865.3 857.143 1857 854.093C1848.46 850.954 1838.94 852 1830 852C1829.73 846.326 1831.98 836.846 1827.57 832.434C1824.02 828.889 1817.55 830 1813 830L1776 830C1771.45 830 1764.97 828.887 1761.43 832.434C1757.28 836.596 1759 846.558 1759 852C1739.66 851.987 1734.22 829.735 1717 824.224C1707.87 821.303 1696.49 823 1687 823L1627 823.001C1606.12 823.102 1601.5 842.294 1585 850.543C1580.03 853.03 1573.4 852 1568 852C1567.73 846.326 1569.98 836.846 1565.57 832.434C1562.02 828.889 1555.55 830 1551 830L1514 830C1509.25 830 1502.14 828.724 1498.43 832.434C1494.28 836.596 1496 846.558 1496 852L1447 852C1439.92 852 1430.65 853.552 1424 850.772C1416.02 847.436 1410.73 839.036 1404.96 833C1395.76 823.375 1388.55 817.988 1376 814C1382.39 787.181 1348.36 795 1331 795C1324.74 795 1312.24 792.622 1307.43 797.434C1303.56 801.315 1305.01 809.939 1305 815C1293.04 815 1276.7 812.138 1266 818.483C1248.19 829.043 1238.06 853.879 1218 860.751C1208.21 864.103 1195.24 862 1185 862L1109 862.09C1094.54 863.15 1088.46 874.829 1076 879.441C1064.9 883.549 1049.7 881 1038 881C1044.07 866.902 1038.11 848.092 1022 844.044C998.013 838.016 970.825 848.525 947 842.073C917.699 834.137 908.166 793.042 877 786.808C860.619 783.531 841.686 786 825 786L724 786L686 786C678.841 786 670.945 786.316 665.015 781.606C652.625 771.764 657 749.985 657 736L657 610C675.561 615.486 675 600.659 675 587C675 580.828 676.867 570.527 668.985 568.458C659.865 566.065 647.407 567.885 638 568.116C634.374 568.205 630.25 567.622 627.434 570.434C622.577 575.282 622.583 603.716 627.434 608.566C630.98 612.113 637.439 611 642 611M743.044 568.753C734.459 572.136 737.962 591.587 738.001 599C738.018 602.34 737.884 606.016 740.434 608.566C743.62 611.753 748.902 611.029 753 610.92C763.715 610.635 779.941 614.193 789.956 610.247C797.75 607.176 796.795 588.647 791.815 583.594L776.896 569.178C770.838 565.874 749.469 566.221 743.044 568.753M490 757C490.884 773.139 523.274 767 535 767C539.698 767 546.78 768.275 550.772 765.258C556.513 760.917 554.095 746.405 553.84 740C553.661 735.502 551.683 732.095 546.996 731.228L509 731L494.109 732.179C490.378 734.279 490.092 738.175 490 742C471.34 742 432.994 749.432 420.649 731.996C415.472 724.685 416 715.49 416 707C416 684.87 422.572 650.846 400 637.352C377.849 624.109 340.963 631 316 631L119 631L57 631C50.9192 631 39.1106 628.746 34.4336 633.434C25.8029 642.084 39.8479 645.998 46 646L113 646L310 646L362 646C371.259 646 381.545 644.798 390 649.417C400.731 655.28 401 666.211 401 677C401 694.284 397.664 715.527 403.547 732C415.718 766.08 461.625 757 490 757M802 670C815.232 670 834.804 666.394 847 672.046C856.891 676.63 864.441 686.441 872 694L915 737C922.491 744.491 929.778 753.738 939 759.123C954.767 768.331 975.407 765 993 765L1011.89 765.742C1019.63 769.071 1015.61 788.139 1016.04 795C1016.35 799.812 1019.43 804.734 1024.98 803.522C1031.4 802.124 1031 795.107 1031 790C1031 778.872 1034.28 760.253 1022.96 753.367C1002.15 740.71 971.281 758.583 950 747.457C940.993 742.747 934.084 734.084 927 727L883 683C873.748 673.748 865.178 663.222 853 657.796C838.785 651.463 818.256 655 803 655C803 650.327 804.022 643.954 799.772 640.742C795.964 637.865 789.475 639 785 639L749 639C744.526 639 738.035 637.865 734.228 640.742C727.913 645.517 729.445 668.943 731.434 675.985C733.585 683.599 742.889 682 749 682L782 682L797.956 681.258C802.947 679.224 803.029 674.491 802 670M803 712C817.101 712 839.104 707.885 852 714.314C859.276 717.942 865.312 726.312 871 732C887.126 748.126 903.599 770.49 923 782.532C937.755 791.691 954.95 783.754 968.961 791.442C974.187 794.31 977.079 800.07 980 805C973.372 805.06 962.186 811.421 971.228 818.258C975.22 821.275 982.302 820 987 820C994.336 820 1007.37 822.492 1013.89 818.821C1018.83 816.039 1018.83 808.961 1013.89 806.179C1008.98 803.413 1000.48 805 995 805L991.12 793C984.935 782.096 975.557 775.386 963 774.17C952.613 773.164 942.546 775.581 933 770.12C912.784 758.555 895.433 734.433 879 718C873.29 712.29 867.347 704.162 860 700.569C844.155 692.819 820.14 697 803 697C800.472 684.584 779.663 689 770 689C761.537 689 739.724 685.136 733.434 691.434C728.204 696.669 730.228 711.423 731.279 717.996C732.737 727.118 744.275 725 751 725L785 725C789.475 725 795.964 726.135 799.772 723.258C803.327 720.571 802.989 715.978 803 712M803 757L844 757C851.561 757 860.193 756.257 867 760.228C898.673 778.707 915.378 822.559 950 836.649C960.526 840.933 973.878 839 985 839C992.801 839 1006.97 841.715 1013.89 837.821C1019.81 834.491 1018.21 826.192 1011.98 824.434C994.064 819.373 971.027 830.359 954 821.457C944.993 816.747 938.084 808.084 931 801L894 764C887.861 757.861 881.779 750.168 874 746.049C855.263 736.128 823.626 742 803 742C802.651 727.567 787.561 731 777 731L746 731C741.9 731 736.617 730.244 733.434 733.434C730.253 736.62 730.38 744.693 730.265 749C730.153 753.205 730.337 761.465 733.434 764.566C736.801 767.94 742.672 767 747 767L779 767C788.553 767 802.29 769.967 803 757M810 851L872 851C879.018 851 890.885 848.743 897 852.603C907.232 859.063 922.52 875.511 928.467 886C935.848 899.017 933.899 912.498 953 914.816C991.133 919.443 1030.71 911.939 1069 915.093C1083.45 916.284 1090.48 931.847 1106 932.911C1148.9 935.851 1192.99 933 1236 933L1496 933C1496.03 939.162 1493.87 950.646 1497.74 955.772C1502.49 962.06 1518.94 959 1526 959L1526 1053C1526 1067.8 1523.27 1085.8 1528.1 1100C1533.51 1115.86 1550.95 1126.98 1561.83 1139C1577.01 1155.77 1596.42 1182.31 1618 1190.53C1636.38 1197.53 1662.57 1193 1682 1193L1820 1193L2001 1193L2044 1193C2049.19 1192.97 2056.16 1191.89 2055.66 1185C2055.18 1178.24 2048.15 1178.01 2043 1178L2003 1178L1832 1178L1688 1178C1669.21 1178 1641.56 1183.09 1624 1176.07C1605.38 1168.62 1590.86 1145.86 1577 1132C1566.29 1121.29 1547.75 1108.54 1542.55 1094C1538.07 1081.48 1541 1064.18 1541 1051L1541 959C1547.43 959 1558.16 961.048 1563.89 957.821C1570.53 954.084 1568.48 939.221 1567 933L1610 933C1610.09 942.937 1614.78 944.994 1624 945L1624 972C1617.36 972 1603.5 969.372 1598.43 974.434C1595.03 977.834 1596.02 983.654 1596.12 988L1596.25 1020C1596.09 1024.6 1594.8 1030.93 1598.43 1034.57C1601.98 1038.11 1608.45 1037 1613 1037L1650 1037C1654.55 1037 1661.03 1038.11 1664.57 1034.57C1668.72 1030.4 1667 1020.44 1667 1015L1811 1015L1849 1015C1852.88 1015 1860.23 1013.61 1863.53 1016.03C1871.02 1021.52 1860.2 1041.33 1867.43 1048.57C1870.62 1051.75 1875.9 1051 1880 1051C1889.69 1051 1910.71 1054.94 1918.79 1049.26C1932.21 1039.84 1928.85 1025.46 1928.85 1011C1928.85 1005.23 1930.72 996.5 1923.96 993.742L1909 993C1897.48 993 1882.11 990.312 1871.02 993.434L1858 999.995L1684 1000C1680.13 1000 1670.66 1001.71 1667.91 998.397C1662.95 992.41 1670.69 980.566 1664.57 974.434C1659.51 969.37 1645.64 972 1639 972L1639 945C1655.84 944.989 1655.84 930.011 1639 930C1638.96 925.518 1638.78 920.707 1633.96 918.742L1613 918L1568 918C1568 913.12 1569.22 906.104 1564.77 902.742C1560.96 899.865 1554.47 901 1550 901L1514 901C1509.53 901 1503.03 899.865 1499.23 902.742C1494.86 906.048 1496.11 913.172 1496 918L1236 918L1150 918L1107 917.826C1094.19 916.371 1087.39 902.368 1074 900.428C1043.9 896.067 1010.44 900 980 900C970.96 900 952.216 903.698 947.179 893.982C943.875 887.607 948.359 879.254 955 877.434C968.739 873.668 987.743 877.001 1002 877C1007.84 877 1019.76 876.458 1016.24 867.044C1013.52 859.779 1002.04 862 996 862C979.116 862 948.626 855.946 937 871C926.981 860.981 916.054 843.533 903 837.653C894.77 833.945 882.827 836 874 836L810 836C810 829.594 812.299 817.575 808.258 812.228C805.946 809.171 802.47 809.204 799 809.155C791.576 809.051 772.711 805.653 767.742 812.228C764.589 816.401 766 824.082 766 829L766.015 871C766.448 884.783 782.444 880.583 792 880.71C796.592 880.771 802.792 882.265 806.772 879.258C813.06 874.506 810 858.055 810 851M1166.04 843.742C1159.33 846.477 1160.26 855.657 1167.02 857.566C1177.25 860.457 1191.37 858 1202 858L1215.89 856.821C1221.81 853.491 1220.21 845.192 1213.98 843.434C1204.03 840.623 1190.33 843 1180 843L1166.04 843.742M1305 881L1192 881C1184.47 881 1173.08 878.876 1166.04 881.742C1161.7 883.512 1159.84 888.896 1162.74 892.772C1168.17 900.009 1191.71 896 1200 896L1269 896C1280.89 896 1294.4 894.237 1306 897C1304.97 901.491 1305.05 906.224 1310.04 908.258L1326 909L1359 909C1365.11 909 1374.42 910.599 1376.57 902.985C1379.2 893.643 1376.92 880.718 1376.99 871C1377.02 867.296 1377.03 863.205 1373.77 860.742C1369.96 857.865 1363.47 859 1359 859L1323 859C1318.25 859 1311.14 857.724 1307.43 861.434C1303.28 865.596 1305 875.558 1305 881M1615.04 866.742C1608 869.613 1607.7 884.496 1615.04 887.242C1620.98 889.463 1622.75 883.484 1627.21 881.603L1648.89 879.821C1654.29 876.783 1653.6 869.041 1647.96 866.742C1641.37 864.058 1621.63 864.058 1615.04 866.742M1687 930C1680.48 930.019 1667.47 935.877 1677.23 943.258C1681.03 946.135 1687.53 945 1692 945C1703.3 945 1716.86 948.024 1717 933L1759 933C1759.04 940.524 1756.09 956.583 1760.74 962.772C1764.23 967.408 1771.95 966 1777 966C1789.89 966 1806.5 963.185 1819 966.318C1828.38 968.669 1832.93 980.464 1843 982.865C1857.07 986.221 1873.6 984 1888 984L1976 984L2038 984C2044.01 984 2056.34 985.48 2055.66 976.003C2054.95 966.032 2038.63 969 2032 969L1954 969L1878 969C1859.73 969 1846.06 971.231 1833.15 956C1826.25 947.863 1829.72 928.25 1829.86 918C1829.93 912.763 1831.38 905.268 1825.89 902.179L1811 901L1777 901C1772.53 901 1766.03 899.865 1762.23 902.742C1757.86 906.048 1759.11 913.172 1759 918L1737 918C1737.74 900.666 1739.44 879.003 1717 875C1715.55 861.991 1697.57 865.996 1688 866C1682.89 866.002 1675.88 865.605 1674.48 872.015C1672.82 879.593 1680.3 879.362 1684.62 882.02L1692.02 887.566C1702.9 890.628 1720.57 884.175 1722.81 901C1724.98 917.263 1712.5 917.995 1700 918C1691.45 918.003 1684.71 919.986 1687 930M881 881C878.774 870.067 865.581 873 857 873C849.406 873 829.796 869.507 824.743 876.228L823.05 888L823.434 895.985C824.997 901.52 830.095 901.973 835 901.999L873.996 901.772L884.039 897.171C889.114 897.664 893.678 903.684 897 907C905.242 915.229 914.406 928.294 926 931.696C936.499 934.776 949.157 933 960 933C975.88 933 994.393 935.655 1010 932.772C1017.23 931.434 1019.32 921.742 1011.96 918.742L993 918L951 918C944.736 918 936.896 919.237 931 916.772C911.241 908.508 904.906 882.029 881 881M1165.04 899.742C1158.33 902.477 1159.26 911.657 1166.02 913.566C1178.79 917.175 1196.72 914 1210 914C1214.73 914 1221.62 915.225 1225.89 912.821C1232.4 909.158 1229.68 900.463 1223 899.228L1183 899L1165.04 899.742M881 952L937 952L972 952L1010 951.772C1015.72 950.714 1019.12 943.997 1014.57 939.434C1008.17 933.027 985.622 937 977 937C947.066 937 915.817 939.612 886.015 936.941L876.896 931.178L866 930L833 930C828.435 930.002 822.774 929.438 820.182 934.109C817.175 939.528 817.179 957.483 823.109 960.821L837 962C848.514 962 863.901 964.696 874.985 961.566C879.673 960.242 880.762 956.337 881 952M1259 966L1250 965.025C1246.07 965.095 1240.56 964.241 1237.23 966.743C1230.19 972.031 1234 993.978 1234 1002C1234 1008.62 1231.38 1022.51 1236.43 1027.57C1241.11 1032.24 1252.89 1029.92 1259 1030C1260.33 1060.52 1284.46 1067 1310 1067L1398 1067C1409.61 1067 1426.16 1064.02 1437 1068.64C1447.14 1072.96 1455.37 1084.37 1463 1092L1514 1143L1688 1316L1743 1371C1752.25 1380.25 1761.55 1391.9 1775 1394.88C1796.46 1399.62 1822.06 1396 1844 1396L1989 1395L2039 1395C2044.65 1395 2054.26 1395.36 2053.66 1387C2053.12 1379.4 2044.49 1380 2039 1380L1990 1380L1847 1381C1826.03 1381 1801.58 1384.49 1781 1380.53C1768.65 1378.16 1759.4 1365.4 1751 1357L1693 1299L1523 1130L1473 1080C1464.19 1071.19 1455.55 1060.07 1444 1054.8C1432.33 1049.48 1416.5 1052 1404 1052L1322 1052C1301.03 1052 1279.31 1055.66 1274 1030C1280.11 1029.92 1291.89 1032.24 1296.57 1027.57C1301.62 1022.51 1299 1008.62 1299 1002C1299 993.978 1302.81 972.031 1295.77 966.743C1292.44 964.241 1286.93 965.095 1283 965.025L1274 966C1273.68 926.8 1220.37 937 1194 937C1186.4 937 1161.14 932.795 1160.34 944.003C1159.53 955.168 1178.31 952 1185 952L1245 952.174C1252.97 953.07 1258.28 958.045 1259 966M1411 953C1389.37 953.931 1377.78 976.977 1362 989C1362 983.066 1364.13 971.999 1359.57 967.434C1356.38 964.247 1351.1 964.971 1347 965.08L1319 965.13C1315.16 965.139 1310.42 964.455 1307.43 967.434C1303.89 970.974 1305 977.455 1305 982L1305.02 1020C1305.5 1035.46 1333.11 1029.99 1344 1029.99C1348.34 1029.99 1355.12 1031 1358.77 1028.26C1364.46 1023.98 1362 1011.28 1362 1005C1383.64 1002.77 1390.83 970.299 1412 968C1410.58 973.976 1408.64 988.036 1414.23 992.258C1421.1 997.452 1439.64 994 1448 994C1455.84 994 1473.81 997.6 1475.77 986.996L1475.99 955C1475.97 951.186 1475.57 947.252 1471.89 945.179L1457 944C1444.9 944 1428.66 941.144 1417.02 944.434C1412.75 945.639 1411.45 948.992 1411 953M1078.04 955.758C1073.21 957.567 1073.02 962.617 1073 967L1073 1000L1073 1092C1073 1105.52 1075.78 1121.6 1066.96 1132.98C1056.11 1146.98 1025.87 1141 1010 1141L867 1141C845.142 1141 822.165 1142.41 814.217 1167C810.713 1177.84 812 1189.76 812 1201L812 1260L812 1458L812 1527C812 1533.11 810.44 1547.82 820.985 1545.52C829.523 1543.66 827 1530.33 827 1524L827 1457L827 1262L827 1203C827 1193.48 825.349 1182.17 828.221 1173C835.883 1148.52 872.354 1156 892 1156L1027 1156C1047.18 1156 1068.48 1159.01 1081.25 1140C1090.5 1126.23 1088 1108.75 1088 1093L1088 997L1087.77 962.004C1086.94 957.493 1082.72 954.009 1078.04 955.758M1096.04 955.746C1087.77 958.996 1091 975.943 1091 983L1091 1067L1092 1424L1092 1519C1092 1525.46 1088.8 1550.17 1101.96 1545.24C1110.67 1541.98 1107 1521.42 1107 1514L1107 1418L1106 1063L1106.99 978C1107.15 971.099 1109.13 950.609 1096.04 955.746M1115.04 955.746C1107.3 958.786 1110 972.452 1110 979L1111 1051L1111 1110C1111 1122.23 1110.12 1134.52 1117.64 1145C1129.84 1162.02 1151.68 1159 1170 1159L1301 1159L1366 1159C1376.15 1159 1388.18 1161.02 1393.55 1171.04C1397.67 1178.73 1396 1189.6 1396 1198L1396 1254L1396 1459L1396 1526C1396 1532.11 1394.44 1546.82 1404.98 1544.52C1413.52 1542.66 1411 1529.33 1411 1523L1411 1457L1411 1250L1411 1196C1411 1184.87 1412.07 1173.17 1406.74 1163C1393.85 1138.45 1360.87 1144 1338 1144L1187 1144C1171.94 1144 1143.66 1149.45 1132.1 1137.9C1124.42 1130.21 1126 1118.93 1126 1109L1125.83 1047L1126 974C1126 967.318 1126.87 951.103 1115.04 955.746M1134.04 955.758C1124.54 959.315 1129 987.601 1129 996L1129 1080C1129 1095.37 1130.82 1111.78 1145 1121.03C1164.12 1133.51 1194.21 1128 1216 1128L1342 1128C1360.79 1128 1384.94 1123.99 1403 1129.52C1411.53 1132.13 1417.91 1140.91 1424 1147L1463 1186L1609 1332L1679 1402C1689.29 1412.29 1704.55 1423.2 1710.07 1437C1716.9 1454.06 1712 1480.75 1712 1499L1712.11 1538C1712.65 1542.86 1716.74 1547.19 1721.96 1545.24C1728.11 1542.94 1727 1535.24 1727 1530L1727 1487C1727 1469.78 1730.79 1447.29 1724.53 1431C1718.63 1415.62 1703.35 1404.35 1692 1393L1622 1323L1473 1174L1433 1134C1426.26 1127.26 1419.42 1118.37 1410 1115.44C1390.77 1109.48 1366.94 1113 1347 1113L1224 1113L1180 1113C1171.57 1113 1162.5 1113.68 1155 1109.01C1143.02 1101.54 1144 1087.29 1144 1075L1144 990C1144 983.033 1148.21 950.458 1134.04 955.758M1153.04 955.758C1143.78 959.224 1148 984.921 1148 993C1148 1023.21 1136.78 1078.08 1171 1093.58C1186.89 1100.78 1212.84 1096 1230 1096L1365 1096C1381.02 1096 1406.3 1091.23 1421 1098.05C1432.76 1103.5 1442 1116 1451 1125L1507 1181L1670 1344L1721 1395C1729.87 1403.87 1738.53 1414.92 1749 1421.9C1765.24 1432.71 1787.45 1429 1806 1429L1919 1429C1934.34 1429 1955.85 1425.15 1970 1431.92C1981.14 1437.25 1982 1448.11 1982 1459L1982 1521C1982 1527.05 1979.67 1552.05 1992.89 1544.82C2000.58 1540.61 1997 1520.48 1997 1513L1997 1461C1997 1445.39 1996.01 1429.32 1981 1420.35C1964.89 1410.72 1943.98 1414 1926 1414L1813 1414C1796.37 1414 1772.45 1418.49 1758 1408.9C1747.53 1401.94 1738.86 1390.86 1730 1382L1679 1331L1516 1168L1461 1113C1450.58 1102.58 1440.71 1089.9 1427 1083.8C1411.12 1076.72 1387.09 1081 1370 1081L1237 1081C1219.91 1081 1193.93 1085.86 1178 1079.39C1165.91 1074.47 1163 1062.7 1163 1051L1163 984C1163 977.425 1166.53 950.713 1153.04 955.758M1021.04 956.758C1013.01 959.763 1016 975.294 1016 982C1016 1001.31 1024.58 1044.41 999 1050.32L966 1051L902 1051L697 1051L626 1051C612.984 1051 599.007 1049.27 587 1055.27C575.175 1061.18 566.224 1072.78 557 1082L505 1134L325 1315L270 1370C261.033 1378.97 252.089 1390.78 241 1397.12C225.796 1405.82 200.046 1401 183 1401L80 1401C63.5907 1401 43.934 1398.07 28 1402.35C17.1778 1405.26 6.89106 1415.4 3.62269 1426C0.804501 1435.14 2 1445.57 2 1455L2 1506C2 1514.34 -2.24093 1540.25 6.1088 1544.82C20.2412 1552.55 17 1522.24 17 1516C17 1489.97 12.6355 1459.56 17.4676 1434C19.0981 1425.38 27.3591 1417.88 36 1416.33C51.727 1413.52 70.019 1416 86 1416L186 1416C204.749 1416 229.792 1420.33 247 1411.73C258.825 1405.82 267.776 1394.22 277 1385L329 1333L509 1152L564 1097C572.979 1088.02 581.914 1076.26 593 1069.88C603.583 1063.79 617.222 1066 629 1066L702 1066L907 1066L970 1066C981.337 1066 993.938 1067.52 1005 1064.65C1039.42 1055.7 1031 1011.58 1031 985C1031 978.425 1034.53 951.713 1021.04 956.758M1040.04 956.758C1031.33 960.019 1035 980.584 1035 988L1035 1052C1035 1063.04 1033.4 1073.91 1022 1079.03C1012.78 1083.17 999.877 1081 990 1081L921 1081L708 1081L644 1081C632.662 1081 619.963 1079.39 609 1082.77C597.705 1086.26 590.088 1094.91 582 1103L547 1138L412 1273L317 1368C302.955 1382.05 281.745 1397.05 274.467 1416C268.308 1432.03 272 1454.06 272 1471L272 1527C272 1532.93 270.103 1543.8 278.015 1545.52C286.493 1547.37 286.998 1537.66 287 1532L287 1479C287 1462.55 282.564 1438.43 288.468 1423C295.416 1404.84 317.509 1389.49 331 1376L428 1279L557 1150L592 1115C598.879 1108.12 605.482 1100.3 615 1097.1C624.463 1093.93 637.099 1096 647 1096L712 1096L931 1096L994 1096C1004.56 1096 1017 1097.72 1027 1093.65C1050.23 1084.19 1050 1063.31 1050 1042L1050 991C1050 984.033 1054.21 951.458 1040.04 956.758M1059.04 956.758C1049.86 960.193 1054 985.03 1054 993L1054 1079C1054 1090.15 1052.44 1104.89 1040 1109.39C1030.1 1112.96 1017.36 1111 1007 1111L941 1111L718 1111L654 1111C643.442 1111 630.998 1109.28 621 1113.35C608.7 1118.36 600.171 1128.83 591 1138L551.329 1178C534.855 1197.98 542 1234.74 542 1259L542 1461L542 1527C542 1533.11 540.21 1546.37 549.997 1545.66C559.146 1545.01 557 1532.18 557 1526L557 1461L557 1263C557 1241.37 549.768 1204.48 564.326 1187L603 1148C610.138 1140.86 617.38 1131.48 627 1127.61C636.063 1123.97 648.396 1126 658 1126L723 1126L946 1126L1012 1126C1022.79 1126 1035.77 1127.78 1046 1123.65C1058.39 1118.64 1066.25 1106.93 1068.54 1094L1069 1061L1069 996L1068.77 963.004C1067.94 958.493 1063.72 955.009 1059.04 956.758M1667 1065C1666.73 1059.33 1668.98 1049.85 1664.57 1045.43C1661.02 1041.89 1654.55 1043 1650 1043L1613 1043C1608.45 1043 1601.97 1041.89 1598.43 1045.43C1595 1048.87 1596.05 1055.55 1596.01 1060L1596.19 1099C1597.25 1111.41 1620.3 1107 1629 1107C1637.18 1107 1659.87 1110.91 1665.26 1103.77C1669.24 1098.51 1666.99 1086.35 1667 1080L1845 1080L1896 1080C1904.97 1080 1915.46 1081.36 1924 1078.01C1939.36 1071.98 1953.06 1051.88 1964 1040C1964.4 1056.4 1988.35 1051 2000 1051C2008.17 1051 2026.05 1054.34 2032.77 1049.26C2036.6 1046.36 2035.81 1041.23 2035.92 1037C2036.19 1026.96 2039.77 1005.9 2034.82 997.109C2031.9 991.927 2025.01 993 2020 993L1982 993C1977.25 993 1970.14 991.724 1966.43 995.434C1960.87 1001 1966.32 1011.05 1963.55 1017.58L1951 1031C1940.93 1041.07 1930.91 1056.86 1918 1063.31C1911.46 1066.58 1902.11 1065 1895 1065L1846 1065L1667 1065z"/>
</svg>
